<svg width="402" height="354" viewBox="0 0 402 354" fill="none" xmlns="http://www.w3.org/2000/svg">
<path d="M21.6875 289.288H380.31" stroke="#9F45E5" stroke-linecap="round" stroke-linejoin="round"/>
<path d="M1 289.29H12.4943" stroke="#9F45E5" stroke-linecap="round" stroke-linejoin="round"/>
<path d="M389.506 289.288H401" stroke="#9F45E5" stroke-linecap="round" stroke-linejoin="round"/>
<path d="M256.178 164.827C208.403 164.827 186.398 130.868 186.398 88.9643C186.484 81.5768 188.485 74.3381 192.208 67.9567C195.931 61.5752 201.247 56.2697 207.635 52.5595C222.731 45.0063 239.304 40.8685 256.178 40.4399C273.052 40.8739 289.624 45.018 304.716 52.5779C311.105 56.2874 316.422 61.5927 320.145 67.9744C323.867 74.356 325.869 81.5951 325.953 88.9827C325.93 130.868 303.925 164.827 256.178 164.827Z" fill="white"/>
<path d="M256.178 164.827C208.403 164.827 186.398 130.868 186.398 88.9643C186.484 81.5768 188.485 74.3381 192.208 67.9567C195.931 61.5752 201.247 56.2697 207.635 52.5595C222.731 45.0063 239.304 40.8685 256.178 40.4399C273.052 40.8739 289.624 45.018 304.716 52.5779C311.105 56.2874 316.422 61.5927 320.145 67.9744C323.867 74.356 325.869 81.5951 325.953 88.9827C325.93 130.868 303.925 164.827 256.178 164.827Z" stroke="#AC5CEB" stroke-linecap="round" stroke-linejoin="round"/>
<path d="M335.032 289.204V250.758C335.032 229.838 326.722 209.775 311.929 194.982C297.137 180.19 277.074 171.879 256.154 171.879C235.234 171.879 215.171 180.19 200.378 194.982C185.586 209.775 177.275 229.838 177.275 250.758V289.204H335.032Z" fill="white"/>
<path d="M335.032 289.204V250.758C335.032 229.838 326.722 209.775 311.929 194.982C297.137 180.19 277.074 171.879 256.154 171.879C235.234 171.879 215.171 180.19 200.378 194.982C185.586 209.775 177.275 229.838 177.275 250.758V289.204H335.032Z" stroke="#AC5CEB" stroke-linecap="round" stroke-linejoin="round"/>
<path d="M207.609 289.215V242.718" stroke="#AC5CEB" stroke-linecap="round" stroke-linejoin="round"/>
<path d="M304.691 289.215V242.718" stroke="#AC5CEB" stroke-linecap="round" stroke-linejoin="round"/>
<path d="M274.361 185.076H237.952L232.729 195.508C232.18 196.608 232.051 197.87 232.365 199.058L256.177 289.205L279.966 199.049C280.278 197.86 280.148 196.598 279.598 195.499L274.361 185.076Z" fill="#D6DAFF" stroke="#AC5CEB" stroke-linecap="round" stroke-linejoin="round"/>
<path d="M274.358 185.076L256.155 234.602L237.953 185.076V157.774H274.358V185.076Z" fill="white" stroke="#AC5CEB" stroke-linecap="round" stroke-linejoin="round"/>
<path d="M274.358 185.076L256.155 234.602L237.953 185.076V157.774H274.358V185.076Z" stroke="#AC5CEB" stroke-linecap="round" stroke-linejoin="round"/>
<path d="M237.952 170.896V185.076L232.729 195.508C232.181 196.608 232.051 197.87 232.366 199.058L256.177 289.205H244.039L221.11 248.143C220.699 247.406 220.479 246.579 220.47 245.736C220.46 244.893 220.661 244.061 221.055 243.315L226.982 232.101C227.518 231.087 227.694 229.921 227.48 228.794C227.266 227.667 226.675 226.646 225.805 225.899L210.251 212.566C209.476 211.903 208.919 211.021 208.654 210.037C208.389 209.052 208.428 208.01 208.766 207.048L213.975 192.018C215.813 186.73 218.986 182.007 223.187 178.306C227.388 174.605 232.474 172.053 237.952 170.896Z" fill="white" stroke="#AC5CEB" stroke-linecap="round" stroke-linejoin="round"/>
<path d="M274.353 170.896V185.076L279.562 195.508C280.112 196.607 280.243 197.869 279.93 199.058L256.174 289.205H268.307L291.236 248.143C291.648 247.407 291.869 246.58 291.879 245.737C291.89 244.893 291.689 244.061 291.296 243.315L285.365 232.101C284.829 231.087 284.654 229.92 284.869 228.793C285.084 227.666 285.675 226.645 286.546 225.899L302.1 212.566C302.875 211.903 303.432 211.021 303.697 210.037C303.962 209.052 303.923 208.01 303.585 207.048L298.376 192.018C296.533 186.725 293.352 181.999 289.143 178.298C284.933 174.597 279.839 172.047 274.353 170.896V170.896Z" fill="white" stroke="#AC5CEB" stroke-linecap="round" stroke-linejoin="round"/>
<path d="M306.711 104.657V92.0175C306.711 90.0725 306.599 88.129 306.375 86.1968C299.981 87.8509 293.422 88.7855 286.821 88.983C275.804 88.9939 264.948 86.3444 255.175 81.2598C245.402 76.1752 237.001 68.8059 230.687 59.7783C230.668 66.7633 228.133 73.5076 223.546 78.7757C218.959 84.0438 212.628 87.483 205.712 88.4635C205.63 89.6451 205.584 90.8359 205.584 92.0405V104.68C202.901 104.68 200.328 105.745 198.431 107.642C196.534 109.539 195.469 112.112 195.469 114.795C195.469 117.477 196.534 120.05 198.431 121.947C200.328 123.844 202.901 124.91 205.584 124.91C205.795 124.91 205.993 124.859 206.204 124.845C207.992 136.812 214.017 147.74 223.183 155.639C232.349 163.538 244.047 167.882 256.147 167.882C268.247 167.882 279.945 163.538 289.111 155.639C298.277 147.74 304.302 136.812 306.09 124.845C306.301 124.845 306.499 124.91 306.711 124.91C308.039 124.91 309.354 124.648 310.581 124.14C311.809 123.631 312.924 122.886 313.863 121.947C314.802 121.008 315.547 119.893 316.056 118.665C316.564 117.438 316.826 116.123 316.826 114.795C316.826 113.466 316.564 112.151 316.056 110.924C315.547 109.697 314.802 108.582 313.863 107.642C312.924 106.703 311.809 105.958 310.581 105.45C309.354 104.941 308.039 104.68 306.711 104.68V104.657Z" fill="white" stroke="#AC5CEB" stroke-linecap="round" stroke-linejoin="round"/>
<path d="M285.216 132.468C288.708 132.468 291.538 129.638 291.538 126.147C291.538 122.655 288.708 119.825 285.216 119.825C281.725 119.825 278.895 122.655 278.895 126.147C278.895 129.638 281.725 132.468 285.216 132.468Z" fill="#D6DAFF"/>
<path d="M227.07 132.468C230.561 132.468 233.392 129.638 233.392 126.147C233.392 122.655 230.561 119.825 227.07 119.825C223.578 119.825 220.748 122.655 220.748 126.147C220.748 129.638 223.578 132.468 227.07 132.468Z" fill="#D6DAFF"/>
<path d="M271.341 138.983C267.238 142.887 261.792 145.063 256.13 145.063C250.467 145.063 245.021 142.887 240.918 138.983" stroke="#AC5CEB" stroke-linecap="round" stroke-linejoin="round"/>
<path d="M228.336 109.713C228.961 108.211 230.017 106.927 231.371 106.024C232.725 105.121 234.316 104.639 235.943 104.639C237.57 104.639 239.161 105.121 240.515 106.024C241.869 106.927 242.925 108.211 243.55 109.713" stroke="#AC5CEB" stroke-linecap="round" stroke-linejoin="round"/>
<path d="M268.828 109.713C269.453 108.211 270.509 106.927 271.863 106.024C273.217 105.121 274.808 104.639 276.435 104.639C278.062 104.639 279.653 105.121 281.007 106.024C282.361 106.927 283.417 108.211 284.042 109.713" stroke="#AC5CEB" stroke-linecap="round" stroke-linejoin="round"/>
<path d="M312.491 13.8368C294.741 5.91486 275.609 1.5535 256.179 1V1C236.733 1.54632 217.584 5.90786 199.82 13.8368C198.441 14.4479 197.34 15.5517 196.733 16.932C196.126 18.3124 196.056 19.8697 196.537 21.2989L205.962 51.5657H306.344L315.774 21.2989C316.255 19.8697 316.185 18.3124 315.578 16.932C314.971 15.5517 313.87 14.4479 312.491 13.8368V13.8368Z" fill="white"/>
<path d="M264.999 22.4893H261.206V18.6962C261.206 18.3641 261.14 18.0353 261.013 17.7285C260.886 17.4217 260.7 17.1429 260.465 16.9081C260.23 16.6733 259.951 16.4871 259.645 16.36C259.338 16.2329 259.009 16.1675 258.677 16.1675H253.619C253.287 16.1675 252.959 16.2329 252.652 16.36C252.345 16.4871 252.066 16.6733 251.831 16.9081C251.597 17.1429 251.41 17.4217 251.283 17.7285C251.156 18.0353 251.091 18.3641 251.091 18.6962V22.4893H247.302C246.97 22.4893 246.641 22.5548 246.334 22.6818C246.028 22.8089 245.749 22.9952 245.514 23.23C245.279 23.4648 245.093 23.7436 244.966 24.0504C244.839 24.3572 244.773 24.686 244.773 25.0181V30.0756C244.773 30.7462 245.04 31.3894 245.514 31.8637C245.988 32.3379 246.632 32.6043 247.302 32.6043H251.118V36.3928C251.118 37.0635 251.385 37.7067 251.859 38.1809C252.333 38.6552 252.976 38.9216 253.647 38.9216H258.705C259.375 38.9216 260.018 38.6552 260.493 38.1809C260.967 37.7067 261.233 37.0635 261.233 36.3928V32.6043H265.026C265.697 32.6043 266.34 32.3379 266.814 31.8637C267.289 31.3894 267.555 30.7462 267.555 30.0756V25.0181C267.555 24.6837 267.489 24.3526 267.36 24.044C267.231 23.7354 267.042 23.4554 266.805 23.2202C266.567 22.985 266.285 22.7993 265.975 22.6739C265.665 22.5484 265.333 22.4857 264.999 22.4893V22.4893Z" fill="white" stroke="#AC5CEB" stroke-linecap="round" stroke-linejoin="round"/>
<path d="M312.491 13.8368C294.741 5.91486 275.609 1.5535 256.179 1V1C236.733 1.54632 217.584 5.90786 199.82 13.8368C198.441 14.4479 197.34 15.5517 196.733 16.932C196.126 18.3124 196.056 19.8697 196.537 21.2989L205.962 51.5657H306.344L315.774 21.2989C316.255 19.8697 316.185 18.3124 315.578 16.932C314.971 15.5517 313.87 14.4479 312.491 13.8368V13.8368Z" stroke="#AC5CEB" stroke-linecap="round" stroke-linejoin="round"/>
<path d="M134.797 353.957C181.712 353.957 219.745 349.881 219.745 344.853C219.745 339.826 181.712 335.75 134.797 335.75C87.8819 335.75 49.8496 339.826 49.8496 344.853C49.8496 349.881 87.8819 353.957 134.797 353.957Z" fill="#F0F2FF"/>
<path d="M197.505 232.605H72.1026C66.5188 232.605 61.9922 237.132 61.9922 242.715V331.709C61.9922 337.293 66.5188 341.819 72.1026 341.819H197.505C203.089 341.819 207.616 337.293 207.616 331.709V242.715C207.616 237.132 203.089 232.605 197.505 232.605Z" fill="white"/>
<path d="M198.42 232.605H71.1876C66.1091 232.605 61.9922 236.722 61.9922 241.8V332.624C61.9922 337.702 66.1091 341.819 71.1876 341.819H198.42C203.499 341.819 207.616 337.702 207.616 332.624V241.8C207.616 236.722 203.499 232.605 198.42 232.605Z" stroke="#AC5CEB" stroke-linecap="round" stroke-linejoin="round"/>
<path d="M154.01 278.113H143.895V267.998C143.895 266.657 143.362 265.371 142.414 264.422C141.465 263.474 140.179 262.941 138.838 262.941H130.746C129.404 262.941 128.118 263.474 127.169 264.422C126.221 265.371 125.688 266.657 125.688 267.998V278.113H115.573C114.232 278.113 112.945 278.646 111.997 279.595C111.048 280.543 110.516 281.83 110.516 283.171V291.263C110.516 292.604 111.048 293.891 111.997 294.839C112.945 295.788 114.232 296.32 115.573 296.32H125.688V306.435C125.688 307.777 126.221 309.063 127.169 310.012C128.118 310.96 129.404 311.493 130.746 311.493H138.838C140.179 311.493 141.465 310.96 142.414 310.012C143.362 309.063 143.895 307.777 143.895 306.435V296.32H154.01C155.351 296.32 156.638 295.788 157.586 294.839C158.535 293.891 159.068 292.604 159.068 291.263V283.171C159.068 281.83 158.535 280.543 157.586 279.595C156.638 278.646 155.351 278.113 154.01 278.113V278.113Z" fill="#D6DAFF"/>
<path d="M154.01 278.113H143.895V267.998C143.895 266.657 143.362 265.371 142.414 264.422C141.465 263.474 140.179 262.941 138.838 262.941H130.746C129.404 262.941 128.118 263.474 127.169 264.422C126.221 265.371 125.688 266.657 125.688 267.998V278.113H115.573C114.232 278.113 112.945 278.646 111.997 279.595C111.048 280.543 110.516 281.83 110.516 283.171V291.263C110.516 292.604 111.048 293.891 111.997 294.839C112.945 295.788 114.232 296.32 115.573 296.32H125.688V306.435C125.688 307.777 126.221 309.063 127.169 310.012C128.118 310.96 129.404 311.493 130.746 311.493H138.838C140.179 311.493 141.465 310.96 142.414 310.012C143.362 309.063 143.895 307.777 143.895 306.435V296.32H154.01C155.351 296.32 156.638 295.788 157.586 294.839C158.535 293.891 159.068 292.604 159.068 291.263V283.171C159.068 281.83 158.535 280.543 157.586 279.595C156.638 278.646 155.351 278.113 154.01 278.113V278.113Z" stroke="#AC5CEB" stroke-linecap="round" stroke-linejoin="round"/>
<path d="M114.099 232.606L120.6 217.433H148.996L155.497 232.606H168.159C168.161 231.784 167.995 230.971 167.672 230.215L158.573 208.983C158.105 207.891 157.327 206.961 156.336 206.307C155.345 205.654 154.183 205.305 152.996 205.305H116.591C115.403 205.304 114.241 205.652 113.25 206.306C112.258 206.96 111.481 207.891 111.014 208.983L101.915 230.215C101.591 230.971 101.426 231.784 101.428 232.606H114.099Z" fill="white" stroke="#AC5CEB" stroke-linecap="round" stroke-linejoin="round"/>
<path d="M107.49 217.438H162.097" stroke="#AC5CEB" stroke-linecap="round" stroke-linejoin="round"/>
</svg>
