<svg width="300" height="296" viewBox="0 0 300 296" fill="none" xmlns="http://www.w3.org/2000/svg">
<path opacity="0.4" d="M290.024 238.509L226.633 278.412C223.391 280.453 219.739 281.759 215.937 282.239C212.134 282.72 208.272 282.362 204.622 281.191L135.136 258.896C131.464 257.718 127.577 257.363 123.751 257.857C119.926 258.35 116.257 259.681 113.005 261.752L62.1328 294.167C60.5721 295.151 58.8028 295.759 56.9659 295.942C55.129 296.124 53.2746 295.878 51.5495 295.22C49.8249 294.563 48.2771 293.514 47.0295 292.155C45.7819 290.797 44.8685 289.167 44.3621 287.395L0.455443 133.752C-0.248481 131.288 -0.133842 128.663 0.781397 126.269C1.69664 123.876 3.36414 121.843 5.53346 120.474L69.6002 80.0579C73.152 77.8172 77.1537 76.3816 81.322 75.8536C85.4903 75.3251 89.7239 75.7162 93.7242 76.9997L160.993 98.5835C165.008 99.8716 169.258 100.261 173.44 99.724C177.623 99.1873 181.635 97.7374 185.193 95.4779L233.367 64.8774C234.927 63.8862 236.698 63.2727 238.538 63.0847C240.378 62.8973 242.236 63.1413 243.965 63.7966C245.694 64.4523 247.245 65.5019 248.496 66.8617C249.747 68.2215 250.663 69.8543 251.17 71.6295L295.07 225.252C295.772 227.709 295.661 230.327 294.751 232.716C293.842 235.105 292.184 237.137 290.024 238.509Z" fill="#CCCDCF"/>
<path d="M292.499 222.205L238.368 256.589C234.81 258.849 230.797 260.299 226.614 260.836C222.432 261.372 218.182 260.983 214.167 259.695L146.894 238.111C142.894 236.828 138.66 236.436 134.491 236.965C130.323 237.493 126.322 238.928 122.77 241.169L64.6059 277.863C63.0452 278.847 61.276 279.455 59.4391 279.638C57.6017 279.821 55.7473 279.574 54.0227 278.916C52.2976 278.259 50.7503 277.21 49.5026 275.851C48.255 274.493 47.3416 272.863 46.8352 271.091L2.92905 117.448C2.22467 114.984 2.33884 112.359 3.25454 109.966C4.16978 107.572 5.83682 105.539 8.0066 104.17L72.0701 63.7519C75.6219 61.5116 79.6231 60.0765 83.7914 59.548C87.9602 59.0196 92.1938 59.4111 96.1941 60.6941L163.467 82.2784C167.481 83.5664 171.731 83.9561 175.914 83.4194C180.097 82.8826 184.11 81.4323 187.667 79.1723L235.841 48.5723C237.401 47.5816 239.172 46.9676 241.011 46.7801C242.851 46.5926 244.71 46.8362 246.439 47.4919C248.167 48.1477 249.719 49.1973 250.97 50.5571C252.221 51.9169 253.137 53.5492 253.644 55.3244L297.544 208.946C298.246 211.404 298.135 214.022 297.226 216.411C296.316 218.801 294.659 220.833 292.499 222.205Z" fill="white"/>
<path d="M140.437 220.742L130.371 192.394L82.8053 208.649L67.9318 165.633L29.1902 173.329L56.3527 268.378C56.4729 268.795 56.7261 269.161 57.0737 269.421C57.4213 269.681 57.8443 269.822 58.2789 269.82C58.6477 269.818 59.0077 269.709 59.3153 269.507L114.614 234.622C114.373 234.341 140.437 220.742 140.437 220.742Z" fill="#EAF4F7"/>
<path d="M292.499 222.205L238.368 256.589C234.81 258.849 230.797 260.299 226.614 260.836C222.432 261.372 218.182 260.983 214.167 259.695L146.894 238.111C142.894 236.828 138.66 236.436 134.491 236.965C130.323 237.493 126.322 238.928 122.77 241.169L64.6059 277.863C63.0452 278.847 61.276 279.455 59.4391 279.638C57.6017 279.821 55.7473 279.574 54.0227 278.916C52.2976 278.259 50.7503 277.21 49.5026 275.851C48.255 274.493 47.3416 272.863 46.8352 271.091L2.92905 117.448C2.22467 114.984 2.33884 112.359 3.25454 109.966C4.16978 107.572 5.83682 105.539 8.0066 104.17L72.0701 63.7519C75.6219 61.5116 79.6231 60.0765 83.7914 59.548C87.9602 59.0196 92.1938 59.4111 96.1941 60.6941L163.467 82.2783C167.481 83.5664 171.731 83.9561 175.914 83.4194C180.097 82.8826 184.11 81.4323 187.667 79.1723L235.841 48.5723C237.401 47.5816 239.172 46.9676 241.011 46.7801C242.851 46.5926 244.71 46.8362 246.439 47.4919C248.167 48.1477 249.719 49.1973 250.97 50.5571C252.221 51.9169 253.137 53.5492 253.644 55.3244L297.544 208.946C298.246 211.404 298.135 214.022 297.226 216.411C296.316 218.801 294.659 220.833 292.499 222.205Z" stroke="#363A5A" stroke-width="3" stroke-miterlimit="10"/>
<path d="M90.5098 203.116C90.5098 203.116 91.3348 202.901 92.7251 202.496" stroke="#363A5A" stroke-width="2" stroke-linecap="round" stroke-linejoin="round"/>
<path d="M99.4182 200.358C109.194 196.963 123.539 190.733 123.712 183.366C123.942 173.578 76.4157 124.606 101.966 121.646C187.27 111.763 149.048 182.581 187.953 180.998C204.388 180.33 173.994 157.774 220.954 141.47C227.915 139.052 224.457 121.38 222.121 112.141" stroke="#363A5A" stroke-width="2" stroke-linecap="round" stroke-linejoin="round" stroke-dasharray="10.18 15.26"/>
<path d="M221.218 108.753C220.83 107.366 220.574 106.547 220.574 106.547" stroke="#363A5A" stroke-width="2" stroke-linecap="round" stroke-linejoin="round"/>
<path opacity="0.22" d="M87.5384 226.46C99.7919 226.46 109.725 216.545 109.725 204.314C109.725 192.083 99.7919 182.168 87.5384 182.168C75.2849 182.168 65.3517 192.083 65.3517 204.314C65.3517 216.545 75.2849 226.46 87.5384 226.46Z" fill="#3DC0CB"/>
<path d="M87.5384 217.157C94.644 217.157 100.404 211.408 100.404 204.315C100.404 197.222 94.644 191.473 87.5384 191.473C80.4329 191.473 74.6726 197.222 74.6726 204.315C74.6726 211.408 80.4329 217.157 87.5384 217.157Z" fill="#3DC0CB"/>
<path d="M87.5385 191.473C85.5662 191.472 83.6202 191.924 81.8509 192.794C80.0821 193.665 78.5376 194.931 77.3373 196.493C79.8667 194.777 82.9259 194.016 85.9658 194.348C89.0062 194.679 91.8283 196.081 93.9267 198.302C96.0252 200.522 97.2622 203.417 97.4164 206.466C97.5706 209.514 96.6315 212.518 94.7674 214.938C97.0435 213.395 98.764 211.164 99.6764 208.573C100.588 205.981 100.645 203.166 99.8357 200.541C99.0273 197.916 97.3966 195.618 95.1831 193.986C92.9701 192.354 90.2911 191.473 87.5394 191.473H87.5385Z" fill="#64C7CF"/>
<path d="M87.5384 217.157C94.644 217.157 100.404 211.408 100.404 204.315C100.404 197.222 94.644 191.473 87.5384 191.473C80.4329 191.473 74.6726 197.222 74.6726 204.315C74.6726 211.408 80.4329 217.157 87.5384 217.157Z" stroke="#363A5A" stroke-width="2" stroke-miterlimit="10"/>
<path d="M93.4014 89.7327L130.302 96.7145L121.828 81.8474L91.2869 71.2114C89.5204 70.5965 87.6498 70.3345 85.7821 70.4411C83.9143 70.5478 82.0857 71.0206 80.4011 71.8326L13.2927 112.522C12.9322 112.751 12.6555 113.09 12.5027 113.489C12.3503 113.887 12.3305 114.324 12.446 114.735L23.2687 152.607L52.7741 145.324L47.3554 123.629L93.4014 89.7327Z" fill="#87D5F7" stroke="#259AD6" stroke-width="2" stroke-linecap="round" stroke-linejoin="round"/>
<path d="M151.881 183.52L172.938 188.812L183.118 212.102L160.434 208.39L151.881 183.52Z" fill="#FDDCBF" stroke="#ECB072" stroke-width="2" stroke-linecap="round" stroke-linejoin="round"/>
<path d="M220.964 113.755C203.857 113.755 189.99 108.803 189.99 102.694C189.99 96.5853 203.857 91.6328 220.964 91.6328C238.07 91.6328 251.937 96.5853 251.937 102.694C251.937 108.803 238.07 113.755 220.964 113.755Z" fill="#EAF4F7"/>
<path d="M230.683 176.422L269.321 159.633L284.585 206.051L222.019 241.542L210.551 209.236L235.015 195.5L230.683 176.422Z" fill="#FDDCBF" stroke="#ECB072" stroke-width="2" stroke-linecap="round" stroke-linejoin="round"/>
<path d="M266.567 48.7602C266.567 22.1987 244.968 0.80978 218.797 2.05146C195.363 3.16355 175.387 23.0902 175.387 47.1436C175.387 81.9387 220.964 108.768 220.964 108.768C220.964 108.768 266.567 81.9387 266.567 48.7602Z" fill="#EE4637"/>
<path d="M237.611 95.3041C234.016 98.1027 229.585 99.6155 225.027 99.5999C220.469 99.5842 216.048 98.0411 212.474 95.2177C198.984 84.5563 179.475 65.199 179.475 42.4347C179.508 32.7691 182.711 23.3807 188.594 15.7031C180.504 23.8582 175.386 34.9717 175.386 47.1436C175.386 81.9387 220.964 108.768 220.964 108.768C220.964 108.768 239.551 97.8311 252.993 81.2876C248.249 86.3623 243.105 91.0492 237.611 95.3041Z" fill="#CD3C27"/>
<path d="M218.797 2.05146C210.58 2.47378 202.636 5.13131 195.824 9.73638C201.189 7.15421 207.018 5.67173 212.966 5.37762C239.137 4.13686 260.736 25.5244 260.736 52.0864C260.736 78.1011 232.701 100.211 220.594 108.547C220.831 108.691 220.963 108.77 220.963 108.77C220.963 108.77 266.566 81.9387 266.566 48.7602C266.567 22.1987 244.968 0.80978 218.797 2.05146Z" fill="#F07378"/>
<path d="M220.964 66.6459C217.252 66.6459 213.625 65.5476 210.539 63.4898C207.453 61.4315 205.049 58.5065 203.628 55.0843C202.208 51.6621 201.836 47.8961 202.56 44.263C203.284 40.6298 205.071 37.2926 207.695 34.6733C210.32 32.0539 213.663 30.2704 217.302 29.5475C220.942 28.8247 224.715 29.1955 228.143 30.6132C231.572 32.0309 234.502 34.4315 236.564 37.5114C238.626 40.5912 239.726 44.2124 239.726 47.9168C239.726 52.884 237.75 57.6476 234.231 61.1599C230.712 64.6722 225.94 66.6459 220.964 66.6459Z" fill="white"/>
<path d="M220.964 66.6459C217.252 66.6459 213.625 65.5476 210.539 63.4898C207.453 61.4315 205.049 58.5065 203.628 55.0843C202.208 51.6621 201.836 47.8961 202.56 44.263C203.284 40.6298 205.071 37.2926 207.695 34.6733C210.32 32.0539 213.663 30.2704 217.302 29.5475C220.942 28.8247 224.715 29.1955 228.143 30.6132C231.572 32.0309 234.502 34.4315 236.564 37.5114C238.626 40.5912 239.726 44.2124 239.726 47.9168C239.726 52.884 237.75 57.6476 234.231 61.1599C230.712 64.6722 225.94 66.6459 220.964 66.6459Z" stroke="#363A5A" stroke-width="2" stroke-miterlimit="10"/>
<path d="M266.567 48.7602C266.567 22.1987 244.968 0.80978 218.797 2.05146C195.363 3.16355 175.387 23.0902 175.387 47.1436C175.387 81.9387 220.964 108.768 220.964 108.768C220.964 108.768 266.567 81.9387 266.567 48.7602Z" stroke="#363A5A" stroke-width="4" stroke-linecap="round" stroke-linejoin="round"/>
</svg>
