<?xml version="1.0" standalone="no"?>
<!DOCTYPE svg PUBLIC "-//W3C//DTD SVG 20010904//EN"
 "http://www.w3.org/TR/2001/REC-SVG-20010904/DTD/svg10.dtd">
<svg version="1.0" xmlns="http://www.w3.org/2000/svg"
 width="1084.000000pt" height="1084.000000pt" viewBox="0 0 1084.000000 1084.000000"
 preserveAspectRatio="xMidYMid meet">
<metadata>
Created by potrace 1.14, written by Peter Selinger 2001-2017
</metadata>
<g transform="translate(0.000000,1084.000000) scale(0.100000,-0.100000)"
fill="#000000" stroke="none">
<path d="M565 10824 c-38 -8 -110 -34 -160 -59 -151 -73 -257 -179 -330 -330
-83 -168 -76 328 -73 -5050 l3 -4800 28 -80 c71 -199 201 -346 384 -431 148
-69 -300 -64 4999 -64 4743 0 4802 0 4878 20 248 63 453 268 516 516 20 76 20
135 20 4878 0 5299 5 4851 -64 4999 -85 183 -232 313 -431 384 l-80 28 -4810
2 c-4159 1 -4819 -1 -4880 -13z m9285 -1459 c65 -33 81 -131 31 -187 -16 -18
-375 -345 -798 -727 l-769 -694 57 -111 c102 -198 135 -344 126 -559 -4 -105
-10 -149 -32 -217 -90 -282 -308 -529 -993 -1123 -249 -216 -1465 -1245 -1715
-1451 -598 -492 -860 -646 -1103 -646 -210 0 -276 56 -789 670 -215 258 -275
339 -318 430 -27 57 -31 75 -31 150 1 313 230 580 1309 1525 1688 1477 2050
1747 2429 1814 269 48 592 -44 832 -237 l66 -53 27 24 c174 162 1524 1374
1546 1388 36 23 86 24 125 4z m-6240 -5350 c58 -30 77 -112 41 -172 -11 -17
-82 -85 -158 -150 -262 -225 -1036 -865 -1381 -1142 -107 -86 -150 -126 -144
-134 313 -395 516 -684 558 -793 44 -116 -58 -218 -167 -169 -41 19 -39 17
-489 550 -106 127 -322 378 -479 558 -157 181 -324 372 -370 425 -108 125
-121 147 -121 204 0 35 6 54 26 77 51 60 131 59 212 -3 97 -76 335 -303 488
-467 87 -93 159 -169 161 -169 2 0 90 75 196 168 439 382 1202 1005 1446 1179
80 58 124 67 181 38z"/>
</g>
</svg>
