<?xml version="1.0" standalone="no"?>
<!DOCTYPE svg PUBLIC "-//W3C//DTD SVG 20010904//EN"
 "http://www.w3.org/TR/2001/REC-SVG-20010904/DTD/svg10.dtd">
<svg version="1.0" xmlns="http://www.w3.org/2000/svg"
 width="260.000000pt" height="260.000000pt" viewBox="0 0 260.000000 260.000000"
 preserveAspectRatio="xMidYMid meet">
<metadata>
Created by potrace 1.14, written by Peter Selinger 2001-2017
</metadata>
<g transform="translate(0.000000,260.000000) scale(0.100000,-0.100000)"
fill="#000000" stroke="none">
<path d="M90 2578 c-33 -17 -51 -35 -67 -68 l-23 -44 0 -1171 0 -1170 23 -40
c13 -22 40 -49 62 -62 l40 -23 1170 0 1171 0 44 23 c33 16 51 34 68 67 l22 44
0 1166 0 1166 -22 44 c-17 33 -35 51 -68 68 l-44 22 -1166 0 -1166 0 -44 -22z
m2285 -338 c3 -6 4 -18 1 -28 -5 -14 -249 -242 -351 -327 l-25 -21 20 -52 c26
-69 26 -144 -1 -199 -31 -63 -110 -139 -414 -397 -371 -314 -439 -360 -514
-341 -44 11 -233 226 -247 281 -4 14 1 44 11 71 23 59 114 150 399 398 238
208 348 294 415 327 84 41 171 35 253 -18 l37 -23 188 169 c175 159 213 185
228 160z m-1501 -1294 c13 -21 -13 -46 -241 -234 -84 -69 -153 -129 -153 -133
0 -4 23 -38 51 -75 28 -38 59 -83 67 -102 16 -32 16 -35 -2 -48 -10 -7 -24
-10 -31 -6 -7 4 -52 54 -101 112 -48 58 -118 139 -154 180 -37 41 -74 87 -84
101 -15 25 -16 28 -1 43 23 22 43 10 133 -80 l74 -74 79 70 c129 114 330 271
342 267 6 -2 15 -11 21 -21z"/>
</g>
</svg>
